<svg id="Layer_1" data-name="Layer 1" xmlns="http://www.w3.org/2000/svg" viewBox="0 0 110 110">
    <g id="RSD-Ite6-_-delivery" data-name="RSD-Ite6- -delivery">
        <g id="_01_frontpage_desktop" data-name="01_frontpage_desktop">
            <g id="Group-11">
                <path id="Stroke-1" d="M62.59,42.43A7.44,7.44,0,1,1,55.15,35,7.43,7.43,0,0,1,62.59,42.43Z"
                    style="fill:none;stroke:currentColor;stroke-width:2px" />
                <path id="Stroke-3"
                    d="M68.39,59.08a4.62,4.62,0,0,0-4.61-4.61H46.22a4.62,4.62,0,0,0-4.61,4.61V70.39A4.62,4.62,0,0,0,46.22,75H58.27a3.87,3.87,0,1,0,0-7.73H57"
                    style="fill:none;stroke:currentColor;stroke-width:2px" />
                <line id="Stroke-5" x1="55.3" y1="54.77" x2="41.91" y2="70.54" style="fill:none;stroke:currentColor" />
                <line id="Stroke-7" x1="60.81" y1="54.57" x2="54.53" y2="74.76" style="fill:none;stroke:currentColor" />
                <line id="Stroke-9" x1="68.39" y1="59.23" x2="68.39" y2="75"
                    style="fill:none;stroke:currentColor;stroke-linecap:round;stroke-width:2px" />
            </g>
        </g>
    </g>
</svg>